<svg xmlns="http://www.w3.org/2000/svg" width="18" height="18" viewBox="0 0 18 18" fill="none">
  <path d="M9 1.125C4.65117 1.125 1.125 4.65117 1.125 9C1.125 13.3488 4.65117 16.875 9 16.875C13.3488 16.875 16.875 13.3488 16.875 9C16.875 4.65117 13.3488 1.125 9 1.125ZM9 15.5391C5.38945 15.5391 2.46094 12.6105 2.46094 9C2.46094 5.38945 5.38945 2.46094 9 2.46094C12.6105 2.46094 15.5391 5.38945 15.5391 9C15.5391 12.6105 12.6105 15.5391 9 15.5391Z" fill="#2E3093"/>
  <path d="M9 2.46094C5.38945 2.46094 2.46094 5.38945 2.46094 9C2.46094 12.6105 5.38945 15.5391 9 15.5391C12.6105 15.5391 15.5391 12.6105 15.5391 9C15.5391 5.38945 12.6105 2.46094 9 2.46094ZM7.88379 11.6508C8.75039 11.6508 9.33926 11.134 9.41309 10.3781C9.42012 10.3061 9.47988 10.2498 9.55371 10.2498H10.4801C10.5223 10.2498 10.5574 10.285 10.5574 10.3271C10.5574 11.6877 9.42715 12.6562 7.88027 12.6562C6.07148 12.6562 5.02734 11.4504 5.02734 9.44648V8.58516C5.02734 6.56543 6.07148 5.34375 7.88027 5.34375C9.43242 5.34375 10.5574 6.34395 10.5574 7.77129C10.5574 7.81348 10.5223 7.84863 10.4801 7.84863H9.55547C9.48164 7.84863 9.42187 7.79238 9.41484 7.71855C9.34629 6.9082 8.75566 6.35449 7.88555 6.35449C6.81152 6.35449 6.20508 7.15254 6.20332 8.5834V9.45C6.20332 10.8615 6.80977 11.6508 7.88379 11.6508ZM12.9727 12.3768C12.9727 12.4541 12.9094 12.5174 12.832 12.5174H11.9461C11.8687 12.5174 11.8055 12.4541 11.8055 12.3768V5.62324C11.8055 5.5459 11.8687 5.48262 11.9461 5.48262H12.832C12.9094 5.48262 12.9727 5.5459 12.9727 5.62324V12.3768Z" fill="#2E3093"/>
  <path d="M12.832 5.48262H11.9461C11.8687 5.48262 11.8055 5.5459 11.8055 5.62324V12.3768C11.8055 12.4541 11.8687 12.5174 11.9461 12.5174H12.832C12.9094 12.5174 12.9727 12.4541 12.9727 12.3768V5.62324C12.9727 5.5459 12.9094 5.48262 12.832 5.48262ZM7.88555 6.35449C8.75566 6.35449 9.34629 6.9082 9.41484 7.71855C9.42187 7.79238 9.48164 7.84863 9.55547 7.84863H10.4801C10.5223 7.84863 10.5574 7.81348 10.5574 7.77129C10.5574 6.34395 9.43242 5.34375 7.88027 5.34375C6.07148 5.34375 5.02734 6.56543 5.02734 8.58516V9.44648C5.02734 11.4504 6.07148 12.6562 7.88027 12.6562C9.42715 12.6562 10.5574 11.6877 10.5574 10.3271C10.5574 10.285 10.5223 10.2498 10.4801 10.2498H9.55371C9.47988 10.2498 9.42012 10.3061 9.41309 10.3781C9.33926 11.134 8.75039 11.6508 7.88379 11.6508C6.80977 11.6508 6.20332 10.8615 6.20332 9.45V8.5834C6.20508 7.15254 6.81152 6.35449 7.88555 6.35449Z" fill="#2E3093"/>
</svg>