<svg width="89" height="18" viewBox="0 0 89 18" fill="none" xmlns="http://www.w3.org/2000/svg">
<path d="M6.57031 15.3945L0.125 8.92969L6.57031 2.48438L7.83984 3.71484L3.50391 8.03125H14.3438V9.82812H3.50391L7.83984 14.1445L6.57031 15.3945ZM35.3016 0.882812V6.87891H30.2625V8.91016H37.3328V10.4141H21.3758V8.91016H28.4266V6.87891H23.407V0.882812H35.3016ZM25.2234 2.34766V5.39453H33.4656V2.34766H25.2234ZM35.3797 12.0742V17.6602H33.5047V13.5391H23.1531V12.0742H35.3797ZM54.257 9.71094V11.2148H38.2414V9.71094H45.3312V8.05078H40.2922V3.59766H50.3898V2.03516H40.2531V0.570312H52.2453V4.96484H42.1281V6.60547H52.5969V8.05078H47.1672V9.71094H54.257ZM52.343 12.4453V17.5234H50.468V13.9297H40.0383V12.4453H52.343ZM63.1148 1.21484C66.7867 1.21484 69.5797 3.14844 69.5797 6.09766C69.5797 9.04688 66.7867 11 63.1148 10.9805C59.443 11 56.6695 9.04688 56.6695 6.09766C56.6695 3.14844 59.443 1.21484 63.1148 1.21484ZM63.1148 2.71875C60.4391 2.69922 58.4273 4.06641 58.4469 6.09766C58.4273 8.14844 60.4391 9.45703 63.1148 9.45703C65.7906 9.45703 67.7828 8.14844 67.7828 6.09766C67.7828 4.06641 65.7906 2.69922 63.1148 2.71875ZM71.1617 13.8516V15.3945H55.1461V13.8516H71.1617ZM88.0469 14.0078V15.5703H72.0312V14.0078H79.082V10.9414H73.9844V5.375H84.2578V2.91406H73.9453V1.39062H86.0938V6.85938H75.8203V9.41797H86.5039V10.9414H80.918V14.0078H88.0469Z" fill="black"/>
</svg>
