<svg width="73" height="15" viewBox="0 0 73 15" fill="none" xmlns="http://www.w3.org/2000/svg">
<path d="M5.65625 12.5156L0.5 7.34375L5.65625 2.1875L6.67188 3.17188L3.20312 6.625H11.875V8.0625H3.20312L6.67188 11.5156L5.65625 12.5156ZM29.2812 0.90625V5.70312H25.25V7.32812H30.9062V8.53125H18.1406V7.32812H23.7812V5.70312H19.7656V0.90625H29.2812ZM21.2188 2.07812V4.51562H27.8125V2.07812H21.2188ZM29.3438 9.85938V14.3281H27.8438V11.0312H19.5625V9.85938H29.3438ZM44.7656 7.96875V9.17188H31.9531V7.96875H37.625V6.64062H33.5938V3.07812H41.6719V1.82812H33.5625V0.65625H43.1562V4.17188H35.0625V5.48438H43.4375V6.64062H39.0938V7.96875H44.7656ZM43.2344 10.1562V14.2188H41.7344V11.3438H33.3906V10.1562H43.2344ZM52.1719 1.17188C55.1094 1.17188 57.3438 2.71875 57.3438 5.07812C57.3438 7.4375 55.1094 9 52.1719 8.98438C49.2344 9 47.0156 7.4375 47.0156 5.07812C47.0156 2.71875 49.2344 1.17188 52.1719 1.17188ZM52.1719 2.375C50.0312 2.35938 48.4219 3.45312 48.4375 5.07812C48.4219 6.71875 50.0312 7.76562 52.1719 7.76562C54.3125 7.76562 55.9062 6.71875 55.9062 5.07812C55.9062 3.45312 54.3125 2.35938 52.1719 2.375ZM58.6094 11.2812V12.5156H45.7969V11.2812H58.6094ZM72.4375 11.4062V12.6562H59.625V11.4062H65.2656V8.95312H61.1875V4.5H69.4062V2.53125H61.1562V1.3125H70.875V5.6875H62.6562V7.73438H71.2031V8.95312H66.7344V11.4062H72.4375Z" fill="black"/>
</svg>
